<svg width="32" height="32" viewBox="0 0 32 32" fill="none" xmlns="http://www.w3.org/2000/svg">
<path d="M5.33331 25.3333V13.3333C5.33331 12.9111 5.42776 12.5111 5.61665 12.1333C5.80554 11.7555 6.06665 11.4444 6.39998 11.2L14.4 5.19996C14.8666 4.8444 15.4 4.66663 16 4.66663C16.6 4.66663 17.1333 4.8444 17.6 5.19996L25.6 11.2C25.9333 11.4444 26.1944 11.7555 26.3833 12.1333C26.5722 12.5111 26.6666 12.9111 26.6666 13.3333V25.3333C26.6666 26.0666 26.4055 26.6944 25.8833 27.2166C25.3611 27.7388 24.7333 28 24 28H20C19.6222 28 19.3055 27.8722 19.05 27.6166C18.7944 27.3611 18.6666 27.0444 18.6666 26.6666V20C18.6666 19.6222 18.5389 19.3055 18.2833 19.05C18.0278 18.7944 17.7111 18.6666 17.3333 18.6666H14.6666C14.2889 18.6666 13.9722 18.7944 13.7166 19.05C13.4611 19.3055 13.3333 19.6222 13.3333 20V26.6666C13.3333 27.0444 13.2055 27.3611 12.95 27.6166C12.6944 27.8722 12.3778 28 12 28H7.99998C7.26665 28 6.63887 27.7388 6.11665 27.2166C5.59442 26.6944 5.33331 26.0666 5.33331 25.3333Z" fill="url(#paint0_linear_266_3)"/>
<defs>
<linearGradient id="paint0_linear_266_3" x1="5" y1="28" x2="29.9843" y2="-5.25811" gradientUnits="userSpaceOnUse">
<stop stop-color="#1A2980"/>
<stop offset="1" stop-color="#26D0CE"/>
</linearGradient>
</defs>
</svg>
