<svg width="32" height="32" viewBox="0 0 32 32" fill="none" xmlns="http://www.w3.org/2000/svg">
<path d="M7.99998 25.3333H12V18.6666C12 18.2888 12.1278 17.9722 12.3833 17.7166C12.6389 17.4611 12.9555 17.3333 13.3333 17.3333H18.6666C19.0444 17.3333 19.3611 17.4611 19.6166 17.7166C19.8722 17.9722 20 18.2888 20 18.6666V25.3333H24V13.3333L16 7.33329L7.99998 13.3333V25.3333ZM5.33331 25.3333V13.3333C5.33331 12.9111 5.42776 12.5111 5.61665 12.1333C5.80554 11.7555 6.06665 11.4444 6.39998 11.2L14.4 5.19996C14.8666 4.8444 15.4 4.66663 16 4.66663C16.6 4.66663 17.1333 4.8444 17.6 5.19996L25.6 11.2C25.9333 11.4444 26.1944 11.7555 26.3833 12.1333C26.5722 12.5111 26.6666 12.9111 26.6666 13.3333V25.3333C26.6666 26.0666 26.4055 26.6944 25.8833 27.2166C25.3611 27.7388 24.7333 28 24 28H18.6666C18.2889 28 17.9722 27.8722 17.7166 27.6166C17.4611 27.3611 17.3333 27.0444 17.3333 26.6666V20H14.6666V26.6666C14.6666 27.0444 14.5389 27.3611 14.2833 27.6166C14.0278 27.8722 13.7111 28 13.3333 28H7.99998C7.26665 28 6.63887 27.7388 6.11665 27.2166C5.59442 26.6944 5.33331 26.0666 5.33331 25.3333Z" fill="#E8EAED"/>
</svg>
