<svg width="32" height="32" viewBox="0 0 32 32" fill="none" xmlns="http://www.w3.org/2000/svg">
<path d="M16 16C14.5333 16 13.2778 15.4778 12.2333 14.4334C11.1889 13.3889 10.6666 12.1334 10.6666 10.6667C10.6666 9.20004 11.1889 7.94449 12.2333 6.90004C13.2778 5.8556 14.5333 5.33337 16 5.33337C17.4666 5.33337 18.7222 5.8556 19.7666 6.90004C20.8111 7.94449 21.3333 9.20004 21.3333 10.6667C21.3333 12.1334 20.8111 13.3889 19.7666 14.4334C18.7222 15.4778 17.4666 16 16 16ZM5.33331 24V22.9334C5.33331 22.1778 5.52776 21.4834 5.91665 20.85C6.30554 20.2167 6.8222 19.7334 7.46665 19.4C8.84442 18.7112 10.2444 18.1945 11.6666 17.85C13.0889 17.5056 14.5333 17.3334 16 17.3334C17.4666 17.3334 18.9111 17.5056 20.3333 17.85C21.7555 18.1945 23.1555 18.7112 24.5333 19.4C25.1778 19.7334 25.6944 20.2167 26.0833 20.85C26.4722 21.4834 26.6666 22.1778 26.6666 22.9334V24C26.6666 24.7334 26.4055 25.3612 25.8833 25.8834C25.3611 26.4056 24.7333 26.6667 24 26.6667H7.99998C7.26665 26.6667 6.63887 26.4056 6.11665 25.8834C5.59442 25.3612 5.33331 24.7334 5.33331 24Z" fill="url(#paint0_linear_266_15)"/>
<defs>
<linearGradient id="paint0_linear_266_15" x1="5" y1="26.6667" x2="27.1989" y2="-5.65381" gradientUnits="userSpaceOnUse">
<stop stop-color="#1A2980"/>
<stop offset="1" stop-color="#26D0CE"/>
</linearGradient>
</defs>
</svg>
