<svg width="32" height="32" viewBox="0 0 32 32" fill="none" xmlns="http://www.w3.org/2000/svg">
<path d="M10.6667 26.6667C9.93333 26.6667 9.30555 26.4056 8.78333 25.8834C8.2611 25.3612 7.99999 24.7334 7.99999 24V21.3334C7.99999 20.9556 8.12777 20.6389 8.38333 20.3834C8.63888 20.1278 8.95555 20 9.33333 20H12V17C11.3333 16.9556 10.6722 16.8167 10.0167 16.5834C9.3611 16.35 8.78888 16 8.29999 15.5334C8.16666 15.4 8.0611 15.25 7.98333 15.0834C7.90555 14.9167 7.86666 14.7445 7.86666 14.5667V13.6667H6.89999C6.72221 13.6667 6.54999 13.6334 6.38333 13.5667C6.21666 13.5 6.06666 13.4 5.93333 13.2667L2.93333 10.2667C2.66666 10 2.53333 9.68893 2.53333 9.33337C2.53333 8.97782 2.66666 8.66671 2.93333 8.40004C3.57777 7.7556 4.44444 7.28337 5.53333 6.98337C6.62221 6.68337 7.62221 6.53337 8.53333 6.53337C9.13333 6.53337 9.71666 6.57782 10.2833 6.66671C10.85 6.7556 11.4222 6.92226 12 7.16671C12 6.6556 12.1778 6.22226 12.5333 5.86671C12.8889 5.51115 13.3222 5.33337 13.8333 5.33337H25.3333C26.0667 5.33337 26.6944 5.59449 27.2167 6.11671C27.7389 6.63893 28 7.26671 28 8.00004V22.6667C28 23.7778 27.6111 24.7223 26.8333 25.5C26.0555 26.2778 25.1111 26.6667 24 26.6667H10.6667ZM14.6667 20H21.3333C21.7111 20 22.0278 20.1278 22.2833 20.3834C22.5389 20.6389 22.6667 20.9556 22.6667 21.3334V22.6667C22.6667 23.0445 22.7944 23.3612 23.05 23.6167C23.3055 23.8723 23.6222 24 24 24C24.3778 24 24.6944 23.8723 24.95 23.6167C25.2055 23.3612 25.3333 23.0445 25.3333 22.6667V8.00004H14.6667V8.80004L22.3 16.4334C22.5 16.6334 22.6222 16.8612 22.6667 17.1167C22.7111 17.3723 22.6778 17.6223 22.5667 17.8667C22.4555 18.1112 22.3 18.3056 22.1 18.45C21.9 18.5945 21.6444 18.6667 21.3333 18.6667C21.1555 18.6667 20.9833 18.6278 20.8167 18.55C20.65 18.4723 20.5111 18.3778 20.4 18.2667L17 14.8667L16.7333 15.1334C16.4222 15.4445 16.0944 15.7223 15.75 15.9667C15.4055 16.2112 15.0444 16.4 14.6667 16.5334V20ZM7.46666 11H9.19999C9.57777 11 9.89444 11.1278 10.15 11.3834C10.4055 11.6389 10.5333 11.9556 10.5333 12.3334V13.8667C10.8 14.0445 11.0778 14.1667 11.3667 14.2334C11.6555 14.3 11.9555 14.3334 12.2667 14.3334C12.7778 14.3334 13.2389 14.2556 13.65 14.1C14.0611 13.9445 14.4667 13.6667 14.8667 13.2667L15.1333 13L13.2667 11.1334C12.6222 10.4889 11.9 10.0056 11.1 9.68337C10.3 9.36115 9.44444 9.20004 8.53333 9.20004C8.08888 9.20004 7.66666 9.23337 7.26666 9.30004C6.86666 9.36671 6.46666 9.46671 6.06666 9.60004L7.46666 11ZM20 22.6667H10.6667V24H20.2C20.1333 23.8 20.0833 23.5889 20.05 23.3667C20.0167 23.1445 20 22.9112 20 22.6667Z" fill="#E8EAED"/>
</svg>
