<svg width="24" height="24" viewBox="0 0 24 24" fill="none" xmlns="http://www.w3.org/2000/svg">
<path d="M8 13.5H16M8 8.5H12M6.099 19C4.79967 18.872 3.824 18.4813 3.172 17.828C2 16.657 2 14.771 2 11V10.5C2 6.729 2 4.843 3.172 3.672C4.344 2.501 6.229 2.5 10 2.5H14C17.771 2.5 19.657 2.5 20.828 3.672C21.999 4.844 22 6.729 22 10.5V11C22 14.771 22 16.657 20.828 17.828C19.656 18.999 17.771 19 14 19C13.44 19.012 12.993 19.055 12.555 19.155C11.356 19.431 10.246 20.045 9.15 20.579C7.587 21.341 6.806 21.722 6.316 21.365C5.378 20.667 6.295 18.502 6.5 17.5" stroke="#4D4D4D" stroke-width="1.5" stroke-linecap="round" stroke-linejoin="round"/>
</svg>
