<svg width="32" height="32" viewBox="0 0 32 32" fill="none" xmlns="http://www.w3.org/2000/svg">
<path d="M16 27.1C15.6889 27.1 15.3722 27.0444 15.05 26.9333C14.7278 26.8222 14.4445 26.6444 14.2 26.4L11.9 24.3C9.54446 22.1444 7.41669 20.0055 5.51669 17.8833C3.61669 15.7611 2.66669 13.4222 2.66669 10.8667C2.66669 8.77777 3.36669 7.03333 4.76669 5.63333C6.16669 4.23333 7.91113 3.53333 10 3.53333C11.1778 3.53333 12.2889 3.78333 13.3334 4.28333C14.3778 4.78333 15.2667 5.46666 16 6.33333C16.7334 5.46666 17.6222 4.78333 18.6667 4.28333C19.7111 3.78333 20.8222 3.53333 22 3.53333C24.0889 3.53333 25.8334 4.23333 27.2334 5.63333C28.6334 7.03333 29.3334 8.77777 29.3334 10.8667C29.3334 13.4222 28.3889 15.7667 26.5 17.9C24.6111 20.0333 22.4667 22.1778 20.0667 24.3333L17.8 26.4C17.5556 26.6444 17.2722 26.8222 16.95 26.9333C16.6278 27.0444 16.3111 27.1 16 27.1ZM14.7334 8.99999C14.0889 8.08888 13.4 7.39444 12.6667 6.91666C11.9334 6.43888 11.0445 6.19999 10 6.19999C8.66669 6.19999 7.55558 6.64444 6.66669 7.53333C5.7778 8.42221 5.33335 9.53333 5.33335 10.8667C5.33335 12.0222 5.74446 13.25 6.56669 14.55C7.38891 15.85 8.37224 17.1111 9.51669 18.3333C10.6611 19.5555 11.8389 20.7 13.05 21.7667C14.2611 22.8333 15.2445 23.7111 16 24.4C16.7556 23.7111 17.7389 22.8333 18.95 21.7667C20.1611 20.7 21.3389 19.5555 22.4834 18.3333C23.6278 17.1111 24.6111 15.85 25.4334 14.55C26.2556 13.25 26.6667 12.0222 26.6667 10.8667C26.6667 9.53333 26.2222 8.42221 25.3334 7.53333C24.4445 6.64444 23.3334 6.19999 22 6.19999C20.9556 6.19999 20.0667 6.43888 19.3334 6.91666C18.6 7.39444 17.9111 8.08888 17.2667 8.99999C17.1111 9.22221 16.9222 9.38888 16.7 9.49999C16.4778 9.6111 16.2445 9.66666 16 9.66666C15.7556 9.66666 15.5222 9.6111 15.3 9.49999C15.0778 9.38888 14.8889 9.22221 14.7334 8.99999Z" fill="#E8EAED"/>
</svg>
