<svg width="32" height="32" viewBox="0 0 32 32" fill="none" xmlns="http://www.w3.org/2000/svg">
<path d="M16 27.1C15.6889 27.1 15.3722 27.0444 15.05 26.9333C14.7278 26.8222 14.4445 26.6444 14.2 26.4L11.9 24.3C9.54446 22.1444 7.41669 20.0055 5.51669 17.8833C3.61669 15.7611 2.66669 13.4222 2.66669 10.8667C2.66669 8.77777 3.36669 7.03333 4.76669 5.63333C6.16669 4.23333 7.91113 3.53333 10 3.53333C11.1778 3.53333 12.2889 3.78333 13.3334 4.28333C14.3778 4.78333 15.2667 5.46666 16 6.33333C16.7334 5.46666 17.6222 4.78333 18.6667 4.28333C19.7111 3.78333 20.8222 3.53333 22 3.53333C24.0889 3.53333 25.8334 4.23333 27.2334 5.63333C28.6334 7.03333 29.3334 8.77777 29.3334 10.8667C29.3334 13.4222 28.3889 15.7667 26.5 17.9C24.6111 20.0333 22.4667 22.1778 20.0667 24.3333L17.8 26.4C17.5556 26.6444 17.2722 26.8222 16.95 26.9333C16.6278 27.0444 16.3111 27.1 16 27.1Z" fill="url(#paint0_linear_266_13)"/>
<defs>
<linearGradient id="paint0_linear_266_13" x1="2.25004" y1="27.1" x2="25.5581" y2="-11.2994" gradientUnits="userSpaceOnUse">
<stop stop-color="#1A2980"/>
<stop offset="1" stop-color="#26D0CE"/>
</linearGradient>
</defs>
</svg>
