<svg width="982" height="1024" viewBox="0 0 982 1024" fill="none" xmlns="http://www.w3.org/2000/svg">
<path opacity="0.2" fill-rule="evenodd" clip-rule="evenodd" d="M762.591 1137.75C773.326 1140.35 784.137 1133.76 786.738 1123.02L855.697 838.364C858.298 827.629 851.704 816.818 840.969 814.217L795.53 803.21C784.795 800.609 773.984 807.203 771.384 817.938L723.96 1013.7C721.359 1024.43 710.549 1031.03 699.813 1028.43L166.611 899.258C150.578 895.374 145.876 874.843 158.622 864.369L962.065 204.118C965.418 201.363 967.783 197.592 968.805 193.375L981.945 139.132L0.736095 939.317C1.51524 947.579 7.42619 954.812 15.9442 956.876L762.591 1137.75ZM6.65918 910.257L980.77 115.861C978.077 111.925 973.976 108.933 968.976 107.722L375.499 -36.0496C364.764 -38.6502 358.17 -49.461 360.77 -60.1962L363.709 -72.3286C366.31 -83.0637 359.716 -93.8746 348.98 -96.4752L297.921 -108.844C287.186 -111.445 276.375 -104.851 273.775 -94.1155L249.653 5.45905C247.052 16.1942 253.646 27.0051 264.381 29.6057L818.663 163.882C834.696 167.766 839.397 188.298 826.652 198.772L23.2082 859.022C19.8557 861.777 17.4901 865.548 16.4685 869.765L6.65918 910.257Z" fill="#4D4D4D"/>
</svg>
