<svg width="80" height="80" viewBox="0 0 80 80" fill="none" xmlns="http://www.w3.org/2000/svg">
<path d="M66.4 4H13.6C8.29807 4 4 8.29807 4 13.6V66.4C4 71.7019 8.29807 76 13.6 76H66.4C71.7019 76 76 71.7019 76 66.4V13.6C76 8.29807 71.7019 4 66.4 4Z" fill="#101010"/>
<path fill-rule="evenodd" clip-rule="evenodd" d="M49.7433 63.7566C53.6597 63.7566 56.8347 60.5816 56.8347 56.6652V51.4218C56.8347 50.4012 56.0073 49.5738 54.9866 49.5738C53.9661 49.5738 53.1386 50.4012 53.1386 51.4218V54.7166C53.1386 57.5569 50.8361 59.8595 47.9958 59.8595H44.5065C37.3864 59.8595 33.3279 51.7248 37.61 46.0361L54.4707 23.6365C54.8455 23.1386 55.0482 22.5322 55.0482 21.9088C55.0482 21.4426 54.9372 21.0023 54.7401 20.6129L22.941 62.5298C23.4705 63.2724 24.339 63.7566 25.3206 63.7566H49.7433ZM22.5406 61.734C22.4493 61.4511 22.3999 61.1493 22.3999 60.8359C22.3999 60.2022 22.606 59.5857 22.9871 59.0794L39.4675 37.1852C43.9021 31.2938 39.6989 22.8692 32.3251 22.8692H26.4201C24.7441 22.8692 23.3855 21.5106 23.3855 19.8347V18.7712C23.3855 17.6826 24.2681 16.8 25.3567 16.8H26.21C26.8274 16.8 27.328 17.3006 27.328 17.918C27.328 18.5355 27.8285 19.036 28.446 19.036H52.1754C52.994 19.036 53.7325 19.3784 54.2557 19.9276L22.5406 61.734Z" fill="white"/>
</svg>
